@startuml Verlag
entity Verlag{
    * VerlagsName primary key
    * Vertragsleiter
    * Verlagsaddresse
}

entity Zeitschrift {
    * Titel primary key
    * Ausgabe
    * Preis
}
entity Abonent {
    * Nummer primary key 
    --
    * Name
    * Addresse 

}

Verlag "1" -- "n" Zeitschrift : verlegt
'' Esgit einen Verlag und dieser hat Viele Zeitschriften im Angebot
Zeitschrift "n" -- "m" Abonent: bezieht | Dauer  | Beginn 
'' Es gibt viele Abonenten diese können viele unterschiedliche Zeitschriften beziehen
@endeuml