@startuml
interface Fahrzeug{
    --
  + mieten(ausleihDatum: String, uhrzeit: String, fahrer: String, kmStand: int): bool

}
class Buchung {
  - ausleihDatum: String 
  - uhrzeit: String 
  - fahrer: String
  --
  + Buchung(ausleihDatum: String, uhrzeit: String, fahrer: String)            
  + getAusleihDatum(): String
  + getUhrzeit(): String
  + getFahrer():String
}

class PKW{
  - farbe: String
  - kategorie: int
  - modell: String
  - ertzulassungsJahr: int
  - kmStand: int
  --
  + Pkw(kategorie: int, modell: String, farbe: String, erstzulassungsJahr: int, kmStand: int)
  + mieten(ausleihDatum: String, uhrzeit: String, fahrer: String, kmStand: int): bool
}

class LKW{
  - maxZuladung: Int
  - kategorie: int
  - modell: String
  - ertzulassungsJahr: int
  - kmStand: int
--
  + LKW(kategorie: int, modell: String, maxZuladung: Int, erstzulassungsJahr: int, kmStand: int)
  + mieten(ausleihDatum: String, uhrzeit: String, fahrer: String, kmStand: int): bool
}

Fahrzeug <|-- LKW
Fahrzeug <|-- PKW

Fahrzeug *- "- buchungen[] 0...*" Buchung

@enduml

